<?xml version="1.0" encoding="utf-8" standalone="no"?>
<!DOCTYPE svg>

<svg xmlns="http://www.w3.org/2000/svg" width="16.9312mm" height="16.9312mm" viewBox="0 0 64 64">
    <path id="Selection" fill="none" stroke="#b55f8a" stroke-width="1"
        d="M 20.00, 30.00
           C 14.91, 27.52 11.02, 21.73 14.02, 16.09
             15.17, 13.93 18.07, 11.72 20.00, 10.21
             22.76,  8.07 25.29,  5.98 29.00,  6.39
             35.75,  7.15 44.84, 17.39 33.00, 21.00
             32.79, 17.40 32.51, 14.10 28.89, 12.19
             24.28,  9.76 18.71, 13.97 19.42, 19.00
             20.44, 26.17 29.19, 25.54 31.83, 27.02
             34.34, 28.42 39.78, 35.44 42.00, 38.00
             45.29, 33.26 47.73, 28.49 54.00, 29.00
             54.00, 29.00 46.03, 41.00 46.03, 41.00
             46.03, 41.00 55.00, 55.00 55.00, 55.00
             53.09, 55.65 51.21, 56.58 49.17, 55.77
             45.62, 54.37 42.35, 47.04 38.91, 47.04
             34.92, 47.04 30.54, 55.67 25.00, 56.59
             16.85, 57.96  8.90, 46.73 10.33, 40.17
             11.04, 36.92 17.39, 32.39 20.00, 30.00 Z
           M 25.00, 31.54
           C 21.22, 32.53 18.25, 34.12 16.74, 38.02
             14.49, 43.81 18.48, 50.89 25.00, 50.76
             28.75, 50.69 35.76, 46.03 35.81, 42.00
             35.86, 37.50 29.05, 32.00 25.00, 31.54 Z"
    />
</svg>
