<?xml version="1.0" encoding="utf-8" standalone="no"?>
<!DOCTYPE svg>

<svg xmlns="http://www.w3.org/2000/svg" width="16.9312mm" height="16.9312mm" viewBox="0 0 64 64">
    <path id="UpperLeft" fill="#b55f8a" stroke="#b55f8a" stroke-width="1"
        d="M 20.00, 31.00
           C 14.91, 28.52 11.02, 22.73 14.02, 17.09
             15.17, 14.93 18.07, 12.72 20.00, 11.21
             22.76,  9.07 25.29,  6.98 29.00,  7.39
             35.75,  8.15 44.84, 18.39 33.00, 22.00
             32.85, 19.52 32.85, 17.33 31.26, 15.23
             25.91,  8.16 15.83, 16.04 20.60, 22.89
             24.32, 28.24 30.04, 25.94 32.34, 28.60
             34.59, 31.19 31.80, 33.44 30.00, 35.00
             28.62, 34.10 27.79, 33.21 26.00, 32.99
             22.30, 32.53 17.93, 36.76 16.75, 40.00
             14.72, 45.61 19.31, 46.55 13.00, 52.00
             13.00, 52.00 10.33, 41.17 10.33, 41.17
             10.33, 41.17 20.00, 31.00 20.00, 31.00 Z"
    />
    <path id="LowerRight" fill="#b55f8a" stroke="#b55f8a" stroke-width="1"
        d="M 42.00, 39.00
           C 45.29, 34.26 47.73, 29.49 54.00, 30.00
             54.00, 30.00 46.03, 42.00 46.03, 42.00
             46.03, 42.00 55.00, 56.00 55.00, 56.00
             53.09, 56.65 51.21, 57.58 49.17, 56.77
             45.62, 55.37 42.35, 48.04 38.91, 48.04
             34.92, 48.04 30.54, 56.67 25.00, 57.59
             21.23, 58.23 10.49, 54.68 18.00, 48.00
             19.82, 49.43 21.60, 51.10 24.00, 51.44
             27.74, 51.97 34.85, 46.82 34.99, 43.00
             35.13, 38.08 28.04, 37.13 34.99, 31.00
             34.99, 31.00 42.00, 39.00 42.00, 39.00 Z"
    />
</svg>
